grf.mot
version=1
nRows=21
nColumns=31
inDegrees=yes
endheader
time	ground_force_vx	ground_force_vy	ground_force_vz	ground_force_px	ground_force_py	ground_force_pz	1_ground_force_vx	1_ground_force_vy	1_ground_force_vz	1_ground_force_px	1_ground_force_py	1_ground_force_pz	ground_torque_x	ground_torque_y	ground_torque_z	1_ground_torque_x	1_ground_torque_y	1_ground_torque_z	apo_force_vx	apo_force_vy	apo_force_vz	apo_force_px	apo_force_py	apo_force_pz	1_apo_force_vx	1_apo_force_vy	1_apo_force_vz	1_apo_force_px	1_apo_force_py	1_apo_force_pz	
0.01500000000000	125.77800000000001	999.05399999999997	-60.57900000000000	-0.20443200000000	0.00000000000000	0.08552240000000	9.86123000000000	38.82790000000000	-8.89047000000000	0.07133870000000	0.00000000000000	-0.03042790000000	0.00000000000000	2.61117000000000	0.00000000000000	0.00000000000000	-2.27819000000000	0.00000000000000	1.34140000000000	-0.25991000000000	0.00000000000000	0.00000000000000	-0.35000000000000	0.00000000000000	1.24140000000000	0.85772000000000	0.00000000000000	0.00000000000000	-0.35000000000000	0.00000000000000	
0.02000000000000	135.41499999999999	1002.54000000000000	-58.88360000000000	-0.21371700000000	0.00000000000000	0.08568280000000	7.37250000000000	58.80440000000000	-9.53234000000000	0.08482300000000	0.00000000000000	-0.03728450000000	0.00000000000000	2.76658000000000	0.00000000000000	0.00000000000000	-2.52768000000000	0.00000000000000	2.93440000000000	-0.59306000000000	0.00000000000000	0.00000000000000	-0.35000000000000	0.00000000000000	-0.01600700000000	-0.01111000000000	0.00000000000000	0.00000000000000	-0.35000000000000	0.00000000000000	
0.02500000000000	144.75100000000000	1002.22000000000000	-56.91010000000000	-0.22357700000000	0.00000000000000	0.08585730000000	4.14365000000000	81.32140000000000	-9.95749000000000	0.09874120000000	0.00000000000000	-0.04444200000000	0.00000000000000	2.89095000000000	0.00000000000000	0.00000000000000	-2.73850000000000	0.00000000000000	4.59930000000000	-0.96738000000000	0.00000000000000	0.00000000000000	-0.35000000000000	0.00000000000000	-1.34150000000000	-0.93535000000000	0.00000000000000	0.00000000000000	-0.35000000000000	0.00000000000000	
0.03000000000000	153.60100000000000	997.83900000000006	-54.66760000000000	-0.23389700000000	0.00000000000000	0.08603600000000	0.15935100000000	106.30500000000001	-10.12960000000000	0.11292200000000	0.00000000000000	-0.05181360000000	0.00000000000000	2.97984000000000	0.00000000000000	0.00000000000000	-2.90199000000000	0.00000000000000	6.31200000000000	-1.37830000000000	0.00000000000000	0.00000000000000	-0.35000000000000	0.00000000000000	-2.72340000000000	-1.90770000000000	0.00000000000000	0.00000000000000	-0.35000000000000	0.00000000000000	
0.03500000000000	161.78299999999999	989.17200000000003	-52.17050000000000	-0.24453600000000	0.00000000000000	0.08620630000000	-4.58031000000000	133.63999999999999	-10.01560000000000	0.12718500000000	0.00000000000000	-0.05930740000000	0.00000000000000	3.02962000000000	0.00000000000000	0.00000000000000	-3.01014000000000	0.00000000000000	8.04890000000000	-1.82000000000000	0.00000000000000	0.00000000000000	-0.35000000000000	0.00000000000000	-4.15430000000000	-2.92390000000000	0.00000000000000	0.00000000000000	-0.35000000000000	0.00000000000000	
0.04000000000000	169.11900000000000	976.07500000000005	-49.43820000000000	-0.25533400000000	0.00000000000000	0.08635300000000	-10.05910000000000	163.17699999999999	-9.58651000000000	0.14134500000000	0.00000000000000	-0.06682850000000	0.00000000000000	3.03752000000000	0.00000000000000	0.00000000000000	-3.05589000000000	0.00000000000000	9.78050000000000	-2.28390000000000	0.00000000000000	0.00000000000000	-0.35000000000000	0.00000000000000	-5.62170000000000	-3.97590000000000	0.00000000000000	0.00000000000000	-0.35000000000000	0.00000000000000	
0.04500000000000	175.44300000000001	958.46900000000005	-46.49490000000000	-0.26610800000000	0.00000000000000	0.08645850000000	-16.24460000000000	194.72900000000001	-8.81852000000000	0.15521700000000	0.00000000000000	-0.07428090000000	0.00000000000000	3.00178000000000	0.00000000000000	0.00000000000000	-3.03327000000000	0.00000000000000	11.47100000000000	-2.75850000000000	0.00000000000000	0.00000000000000	-0.35000000000000	0.00000000000000	-7.10740000000000	-5.05180000000000	0.00000000000000	0.00000000000000	-0.35000000000000	0.00000000000000	
0.05000000000000	179.12600000000000	943.70000000000005	-44.35880000000000	-0.27341300000000	0.00000000000000	0.08649650000000	-20.89410000000000	217.53100000000001	-8.08133000000000	0.16450900000000	0.00000000000000	-0.07932470000000	0.00000000000000	2.95122000000000	0.00000000000000	0.00000000000000	-2.97518000000000	0.00000000000000	12.86100000000000	-3.17590000000000	0.00000000000000	0.00000000000000	-0.35000000000000	0.00000000000000	-8.33440000000000	-5.95420000000000	0.00000000000000	0.00000000000000	-0.35000000000000	0.00000000000000	
0.05500000000000	179.44200000000001	942.12599999999998	-44.14680000000000	-0.27410900000000	0.00000000000000	0.08649790000000	-21.36420000000000	219.79200000000000	-7.99822000000000	0.16539000000000	0.00000000000000	-0.07980590000000	0.00000000000000	2.94490000000000	0.00000000000000	0.00000000000000	-2.96714000000000	0.00000000000000	13.75000000000000	-3.47610000000000	0.00000000000000	0.00000000000000	-0.35000000000000	0.00000000000000	-9.01400000000000	-6.47310000000000	0.00000000000000	0.00000000000000	-0.35000000000000	0.00000000000000	
0.06000000000000	179.75800000000001	940.55200000000002	-43.93480000000000	-0.27480500000000	0.00000000000000	0.08649920000000	-21.83440000000000	222.05199999999999	-7.91511000000000	0.16627100000000	0.00000000000000	-0.08028710000000	0.00000000000000	2.93858000000000	0.00000000000000	0.00000000000000	-2.95910000000000	0.00000000000000	14.60200000000000	-3.76740000000000	0.00000000000000	0.00000000000000	-0.35000000000000	0.00000000000000	-9.65050000000000	-6.96660000000000	0.00000000000000	0.00000000000000	-0.35000000000000	0.00000000000000	
0.06500000000000	180.07499999999999	938.97799999999995	-43.72270000000000	-0.27550100000000	0.00000000000000	0.08650050000000	-22.30450000000000	224.31200000000001	-7.83200000000000	0.16715200000000	0.00000000000000	-0.08076830000000	0.00000000000000	2.93226000000000	0.00000000000000	0.00000000000000	-2.95106000000000	0.00000000000000	15.42000000000000	-4.04680000000000	0.00000000000000	0.00000000000000	-0.35000000000000	0.00000000000000	-10.24700000000000	-7.43570000000000	0.00000000000000	0.00000000000000	-0.35000000000000	0.00000000000000	
0.07000000000000	180.39099999999999	937.40499999999997	-43.51070000000000	-0.27619700000000	0.00000000000000	0.08650190000000	-22.77460000000000	226.57300000000001	-7.74889000000000	0.16803300000000	0.00000000000000	-0.08124950000000	0.00000000000000	2.92593000000000	0.00000000000000	0.00000000000000	-2.94302000000000	0.00000000000000	16.20400000000000	-4.31160000000000	0.00000000000000	0.00000000000000	-0.35000000000000	0.00000000000000	-10.80500000000000	-7.88180000000000	0.00000000000000	0.00000000000000	-0.35000000000000	0.00000000000000	
0.07500000000000	182.03899999999999	927.99300000000005	-42.29250000000000	-0.28009400000000	0.00000000000000	0.08650020000000	-25.50460000000000	239.55500000000001	-7.23692000000000	0.17295300000000	0.00000000000000	-0.08394820000000	0.00000000000000	2.88522000000000	0.00000000000000	0.00000000000000	-2.88897000000000	0.00000000000000	17.14800000000000	-4.61010000000000	0.00000000000000	0.00000000000000	-0.35000000000000	0.00000000000000	-11.56600000000000	-8.48000000000000	0.00000000000000	0.00000000000000	-0.35000000000000	0.00000000000000	
0.08000000000000	185.44000000000000	900.00099999999998	-38.97470000000000	-0.29002600000000	0.00000000000000	0.08642900000000	-33.12260000000000	274.91800000000001	-5.61877000000000	0.18546000000000	0.00000000000000	-0.09088050000000	0.00000000000000	2.74687000000000	0.00000000000000	0.00000000000000	-2.69139000000000	0.00000000000000	18.37600000000000	-4.97330000000000	0.00000000000000	0.00000000000000	-0.35000000000000	0.00000000000000	-12.77000000000000	-9.40800000000000	0.00000000000000	0.00000000000000	-0.35000000000000	0.00000000000000	
0.08500000000000	187.40100000000001	867.79999999999995	-35.55470000000000	-0.29923800000000	0.00000000000000	0.08624380000000	-41.22580000000000	311.47500000000002	-3.62693000000000	0.19710800000000	0.00000000000000	-0.09744810000000	0.00000000000000	2.56685000000000	0.00000000000000	0.00000000000000	-2.41599000000000	0.00000000000000	19.38600000000000	-5.26210000000000	0.00000000000000	0.00000000000000	-0.35000000000000	0.00000000000000	-13.86700000000000	-10.26400000000000	0.00000000000000	0.00000000000000	-0.35000000000000	0.00000000000000	
0.09000000000000	187.84700000000001	831.64400000000001	-32.07100000000000	-0.30751100000000	0.00000000000000	0.08592060000000	-49.71820000000000	348.93599999999998	-1.26602000000000	0.20775400000000	0.00000000000000	-0.10357700000000	0.00000000000000	2.34812000000000	0.00000000000000	0.00000000000000	-2.06350000000000	0.00000000000000	20.19000000000000	-5.47530000000000	0.00000000000000	0.00000000000000	-0.35000000000000	0.00000000000000	-14.88200000000000	-11.06200000000000	0.00000000000000	0.00000000000000	-0.35000000000000	0.00000000000000	
0.09526120000000	186.73099999999999	791.86199999999997	-28.56290000000000	-0.31463100000000	0.00000000000000	0.08543490000000	-58.49290000000000	387.00099999999998	1.45213000000000	0.21727000000000	0.00000000000000	-0.10920500000000	0.00000000000000	2.09461000000000	0.00000000000000	0.00000000000000	-1.63636000000000	0.00000000000000	20.76400000000000	-5.60260000000000	0.00000000000000	0.00000000000000	-0.35000000000000	0.00000000000000	-15.79700000000000	-11.78600000000000	0.00000000000000	0.00000000000000	-0.35000000000000	0.00000000000000	
0.10065400000000	184.03899999999999	748.84299999999996	-25.07050000000000	-0.32039200000000	0.00000000000000	0.08476330000000	-67.43440000000000	425.36599999999999	4.50866000000000	0.22555300000000	0.00000000000000	-0.11427800000000	0.00000000000000	1.81118000000000	0.00000000000000	0.00000000000000	-1.13875000000000	0.00000000000000	21.09200000000000	-5.63820000000000	0.00000000000000	0.00000000000000	-0.35000000000000	0.00000000000000	-16.59200000000000	-12.42000000000000	0.00000000000000	0.00000000000000	-0.35000000000000	0.00000000000000	
0.10424900000000	181.37700000000001	718.58699999999999	-22.77040000000000	-0.32338400000000	0.00000000000000	0.08420100000000	-73.42829999999999	450.95699999999999	6.72196000000000	0.23034700000000	0.00000000000000	-0.11733200000000	0.00000000000000	1.60835000000000	0.00000000000000	0.00000000000000	-0.77065200000000	0.00000000000000	21.30600000000000	-5.61710000000000	0.00000000000000	0.00000000000000	-0.35000000000000	0.00000000000000	-17.10100000000000	-12.83400000000000	0.00000000000000	0.00000000000000	-0.35000000000000	0.00000000000000	
0.10964200000000	176.11500000000001	671.20100000000002	-19.39080000000000	-0.32647400000000	0.00000000000000	0.08317060000000	-82.37600000000001	489.14400000000001	10.28250000000000	0.23640000000000	0.00000000000000	-0.12140100000000	0.00000000000000	1.28784000000000	0.00000000000000	0.00000000000000	-0.16917600000000	0.00000000000000	21.20000000000000	-5.48640000000000	0.00000000000000	0.00000000000000	-0.35000000000000	0.00000000000000	-17.66100000000000	-13.28000000000000	0.00000000000000	0.00000000000000	-0.35000000000000	0.00000000000000	
0.11503500000000	169.39599999999999	621.88400000000001	-16.12840000000000	-0.32775200000000	0.00000000000000	0.08189910000000	-91.16000000000000	526.83000000000004	14.09990000000000	0.24104900000000	0.00000000000000	-0.12484100000000	0.00000000000000	0.95369600000000	0.00000000000000	0.00000000000000	0.48410500000000	0.00000000000000	20.85700000000000	-5.27140000000000	0.00000000000000	0.00000000000000	-0.35000000000000	0.00000000000000	-18.07600000000000	-13.60800000000000	0.00000000000000	0.00000000000000	-0.35000000000000	0.00000000000000	
